<?xml version="1.0" encoding="utf-8"?>
<!-- Generator: Adobe Illustrator 16.0.0, SVG Export Plug-In . SVG Version: 6.00 Build 0)  -->
<!DOCTYPE svg PUBLIC "-//W3C//DTD SVG 1.1//EN" "http://www.w3.org/Graphics/SVG/1.1/DTD/svg11.dtd">
<svg version="1.1" id="Calque_1" focusable="false" xmlns="http://www.w3.org/2000/svg" xmlns:xlink="http://www.w3.org/1999/xlink"
	 x="0px" y="0px" width="595.281px" height="841.891px" viewBox="0 0 595.281 841.891" enable-background="new 0 0 595.281 841.891"
	 xml:space="preserve">
<path fill="#FFFFFF" d="M587.142,638.013L471.224,522.097c-5.23-5.232-12.324-8.139-19.764-8.139h-18.951
	c32.088-41.042,51.156-92.664,51.156-148.82c0-133.589-108.244-241.833-241.833-241.833C108.243,123.305,0,231.548,0,365.138
	C0,498.727,108.243,606.97,241.833,606.97c56.157,0,107.778-19.067,148.819-51.156v18.951c0,7.44,2.908,14.533,8.139,19.765
	l115.918,115.917c10.928,10.93,28.602,10.93,39.414,0l32.902-32.903C597.955,666.614,597.955,648.942,587.142,638.013z
	 M241.833,513.958c-82.2,0-148.82-66.504-148.82-148.82c0-82.2,66.504-148.82,148.82-148.82c82.2,0,148.819,66.504,148.819,148.82
	C390.652,447.338,324.148,513.958,241.833,513.958z"/>
</svg>
